{
  "asset": {
    "generator": "Claude 3.7 Sonnet",
    "version": "2.0"
  },
  "scene": 0,
  "scenes": [
    {
      "nodes": [
        0,
        1
      ]
    }
  ],
  "nodes": [
    {
      "mesh": 0,
      "scale": [0.3, 0.6, 0.03],
      "rotation": [0, 0, 0, 1],
      "name": "SmartphoneBody"
    },
    {
      "mesh": 0,
      "scale": [0.28, 0.55, 0.005],
      "rotation": [0, 0, 0, 1],
      "translation": [0, 0, 0.031],
      "name": "SmartphoneScreen"
    }
  ],
  "meshes": [
    {
      "primitives": [
        {
          "attributes": {
            "NORMAL": 1,
            "POSITION": 2
          },
          "indices": 0,
          "mode": 4,
          "material": 0
        }
      ],
      "name": "SmartphoneMesh"
    }
  ],
  "accessors": [
    {
      "bufferView": 0,
      "byteOffset": 0,
      "componentType": 5123,
      "count": 36,
      "max": [23],
      "min": [0],
      "type": "SCALAR"
    },
    {
      "bufferView": 1,
      "byteOffset": 0,
      "componentType": 5126,
      "count": 24,
      "max": [1.0, 1.0, 1.0],
      "min": [-1.0, -1.0, -1.0],
      "type": "VEC3"
    },
    {
      "bufferView": 1,
      "byteOffset": 288,
      "componentType": 5126,
      "count": 24,
      "max": [0.5, 0.5, 0.5],
      "min": [-0.5, -0.5, -0.5],
      "type": "VEC3"
    }
  ],
  "materials": [
    {
      "pbrMetallicRoughness": {
        "baseColorFactor": [0.1, 0.1, 0.1, 1.0],
        "metallicFactor": 0.9,
        "roughnessFactor": 0.2
      },
      "name": "SmartphoneMaterial"
    }
  ],
  "bufferViews": [
    {
      "buffer": 0,
      "byteOffset": 576,
      "byteLength": 72,
      "target": 34963
    },
    {
      "buffer": 0,
      "byteOffset": 0,
      "byteLength": 576,
      "byteStride": 12,
      "target": 34962
    }
  ],
  "buffers": [
    {
      "byteLength": 648,
      "uri": "../../../Box0.bin"
    }
  ]
} 